<svg width="211" height="240" viewBox="0 0 211 240" fill="none" xmlns="http://www.w3.org/2000/svg">
<rect width="211" height="240" rx="10" fill="url(#paint0_linear_107_15)"/>
<path d="M166.283 134.74L165.815 133.935L166.586 133.411L185.929 120.272L166.586 107.133L165.815 106.609L166.283 105.804L178.024 85.582L154.887 82.1692L153.964 82.033L154.036 81.1028L155.84 57.7837L133.505 64.7132L132.615 64.9892L132.277 64.1213L123.783 42.3337L106.683 58.297L106.001 58.9341L105.319 58.297L88.2192 42.3337L79.7254 64.1205L79.3871 64.9884L78.4974 64.7124L56.1622 57.7829L57.9663 81.1019L58.0383 82.0322L57.1153 82.1684L33.9784 85.5819L45.7194 105.804L46.1872 106.609L45.4165 107.133L26.0733 120.272L45.4165 133.411L46.1872 133.935L45.7194 134.74L33.9785 154.961L57.1153 158.375L58.0383 158.511L57.9663 159.441L56.1622 182.76L78.4974 175.831L79.3871 175.555L79.7255 176.423L88.2192 198.21L105.319 182.246L106.001 181.609L106.683 182.246L123.784 198.21L132.277 176.423L132.615 175.555L133.505 175.831L155.839 182.761L154.036 159.442L153.964 158.512L154.887 158.376L178.024 154.962L166.283 134.74Z" stroke="white" stroke-width="2"/>
<path d="M105.515 168.126C131.199 168.126 152.019 147.305 152.019 121.621C152.019 95.9378 131.199 75.1169 105.515 75.1169C79.8313 75.1169 59.0105 95.9378 59.0105 121.621C59.0105 147.305 79.8313 168.126 105.515 168.126Z" stroke="white" stroke-width="2"/>
<path d="M85.9923 94.6773C88.3398 94.6773 90.2427 92.7745 90.2427 90.4269C90.2427 88.0794 88.3398 86.1766 85.9923 86.1766C83.6455 86.1766 81.7419 88.0795 81.7419 90.4269C81.7419 92.7744 83.6455 94.6773 85.9923 94.6773Z" fill="white" stroke="white"/>
<path d="M99.4423 83.3014C99.4423 84.6947 98.3128 85.825 96.9187 85.825C95.5245 85.825 94.395 84.6947 94.395 83.3014C94.395 81.9073 95.5245 80.7778 96.9187 80.7778C98.3128 80.7778 99.4423 81.9073 99.4423 83.3014Z" fill="white"/>
<defs>
<linearGradient id="paint0_linear_107_15" x1="194" y1="2.91801e-06" x2="1.09209e-06" y2="240" gradientUnits="userSpaceOnUse">
<stop stop-color="#CECECE"/>
<stop offset="1" stop-color="#AFDA9B"/>
</linearGradient>
</defs>
</svg>
