<svg width="252" height="212" viewBox="0 0 252 212" fill="none" xmlns="http://www.w3.org/2000/svg">
<rect width="252" height="212" fill="url(#paint0_linear_107_23)"/>
<path d="M185.989 120.144L185.521 119.339L186.292 118.815L205.635 105.676L186.292 92.5368L185.521 92.0133L185.989 91.2075L197.73 70.9859L174.593 67.5731L173.67 67.437L173.742 66.5067L175.546 43.1877L153.211 50.1171L152.321 50.3932L151.983 49.5253L143.489 27.7376L126.39 43.7009L125.707 44.338L125.025 43.7009L107.926 27.7376L99.4319 49.5245L99.0935 50.3923L98.2039 50.1163L75.8686 43.1868L77.6728 66.5059L77.7447 67.4361L76.8217 67.5723L53.6849 70.9859L65.4258 91.2075L65.8936 92.0133L65.1229 92.5368L45.7797 105.676L65.1229 118.815L65.8937 119.339L65.4258 120.144L53.6849 140.365L76.8217 143.779L77.7447 143.915L77.6728 144.845L75.8686 168.164L98.2039 161.235L99.0935 160.959L99.4319 161.827L107.926 183.614L125.025 167.65L125.707 167.013L126.39 167.65L143.49 183.614L151.983 161.827L152.321 160.959L153.211 161.235L175.546 168.165L173.742 144.846L173.67 143.916L174.593 143.78L197.73 140.366L185.989 120.144Z" stroke="white" stroke-width="2"/>
<path d="M125.221 153.53C150.905 153.53 171.726 132.709 171.726 107.025C171.726 81.3417 150.905 60.5209 125.221 60.5209C99.5378 60.5209 78.7169 81.3417 78.7169 107.025C78.7169 132.709 99.5378 153.53 125.221 153.53Z" stroke="white" stroke-width="2"/>
<path d="M105.699 80.0812C108.046 80.0812 109.949 78.1784 109.949 75.8309C109.949 73.4833 108.046 71.5805 105.699 71.5805C103.352 71.5805 101.448 73.4834 101.448 75.8309C101.448 78.1783 103.352 80.0812 105.699 80.0812Z" fill="white" stroke="white"/>
<path d="M119.149 68.7053C119.149 70.0986 118.019 71.2289 116.625 71.2289C115.231 71.2289 114.101 70.0986 114.101 68.7053C114.101 67.3112 115.231 66.1817 116.625 66.1817C118.019 66.1817 119.149 67.3112 119.149 68.7053Z" fill="white"/>
<defs>
<linearGradient id="paint0_linear_107_23" x1="231.697" y1="2.57758e-06" x2="77.3159" y2="258.224" gradientUnits="userSpaceOnUse">
<stop stop-color="#CECECE"/>
<stop offset="1" stop-color="#AFDA9B"/>
</linearGradient>
</defs>
</svg>
