<svg width="906" height="783" viewBox="0 0 906 783" fill="none" xmlns="http://www.w3.org/2000/svg">
<path d="M159.336 149.605C164.131 176.8 190.064 194.958 217.259 190.163C244.454 185.368 262.612 159.435 257.817 132.24C253.022 105.046 227.089 86.8872 199.894 91.6824C172.7 96.4776 154.541 122.41 159.336 149.605Z" stroke="#979796" stroke-opacity="0.6" stroke-width="2" stroke-linecap="round" stroke-linejoin="round"/>
<path d="M222.744 93.2947L238.179 180.833" stroke="#979796" stroke-opacity="0.6" stroke-width="2" stroke-linecap="round" stroke-linejoin="round"/>
<path d="M178.974 101.012L194.41 188.551" stroke="#979796" stroke-opacity="0.6" stroke-width="2" stroke-linecap="round" stroke-linejoin="round"/>
<path d="M157.407 138.663L161.266 160.547L106.554 170.195C103.652 170.706 100.666 170.044 98.2517 168.354C95.8378 166.664 94.1941 164.084 93.6824 161.182C93.1707 158.28 93.8328 155.293 95.5231 152.879C97.2133 150.465 99.7932 148.822 102.695 148.31L157.407 138.663Z" stroke="#979796" stroke-opacity="0.6" stroke-width="2" stroke-linecap="round" stroke-linejoin="round"/>
<path d="M199.894 91.6824L202.788 108.096" stroke="#979796" stroke-opacity="0.6" stroke-width="2" stroke-linecap="round" stroke-linejoin="round"/>
<path d="M217.259 190.163L214.365 173.75" stroke="#979796" stroke-opacity="0.6" stroke-width="2" stroke-linecap="round" stroke-linejoin="round"/>
<path d="M207.612 135.452L209.541 146.394" stroke="#979796" stroke-opacity="0.6" stroke-width="2" stroke-linecap="round" stroke-linejoin="round"/>
<path d="M240 668C240 680.73 234.943 692.939 225.941 701.941C216.939 710.943 204.73 716 192 716C179.27 716 167.061 710.943 158.059 701.941C149.057 692.939 144 680.73 144 668H240Z" stroke="#979796" stroke-opacity="0.6" stroke-width="2" stroke-linecap="round" stroke-linejoin="round"/>
<path d="M219.72 684C216.912 688.868 212.872 692.911 208.006 695.722C203.14 698.533 197.62 700.012 192 700.012C186.38 700.012 180.86 698.533 175.994 695.722C171.128 692.911 167.088 688.868 164.28 684" stroke="#979796" stroke-opacity="0.6" stroke-width="2" stroke-linecap="round" stroke-linejoin="round"/>
<path d="M156 712H228" stroke="#979796" stroke-opacity="0.6" stroke-width="2" stroke-linecap="round" stroke-linejoin="round"/>
<path d="M228 668L244 652" stroke="#979796" stroke-opacity="0.6" stroke-width="2" stroke-linecap="round" stroke-linejoin="round"/>
<path d="M220 620C220 612.574 217.05 605.452 211.799 600.201C206.548 594.95 199.426 592 192 592C184.574 592 177.452 594.95 172.201 600.201C166.95 605.452 164 612.574 164 620H220Z" stroke="#979796" stroke-opacity="0.6" stroke-width="2" stroke-linecap="round" stroke-linejoin="round"/>
<path d="M164 668V620H220V668" stroke="#979796" stroke-opacity="0.6" stroke-width="2" stroke-linecap="round" stroke-linejoin="round"/>
<path d="M176 636H184" stroke="#979796" stroke-opacity="0.6" stroke-width="2" stroke-linecap="round" stroke-linejoin="round"/>
<path d="M200 636H208" stroke="#979796" stroke-opacity="0.6" stroke-width="2" stroke-linecap="round" stroke-linejoin="round"/>
<path d="M208 652C208 656.243 206.314 660.313 203.314 663.314C200.313 666.314 196.243 668 192 668C187.757 668 183.687 666.314 180.686 663.314C177.686 660.313 176 656.243 176 652" stroke="#979796" stroke-opacity="0.6" stroke-width="2" stroke-linecap="round" stroke-linejoin="round"/>
<path d="M694.958 254.834L718.144 112.073L619.981 131.154L694.958 254.834Z" stroke="#979796" stroke-opacity="0.6" stroke-width="2" stroke-linecap="round" stroke-linejoin="round"/>
<path d="M628.746 129.45C622.204 123.082 617.53 115.044 615.232 106.207C612.934 97.3713 613.099 88.0745 615.709 79.3256C618.32 70.5766 623.276 62.7094 630.04 56.5774C636.805 50.4453 645.119 46.2825 654.081 44.5404C663.044 42.7983 672.312 43.5434 680.881 46.695C689.45 49.8465 696.992 55.2842 702.69 62.4182C708.388 69.5521 712.024 78.1101 713.203 87.1637C714.382 96.2174 713.06 105.421 709.38 113.777" stroke="#979796" stroke-opacity="0.6" stroke-width="2" stroke-linecap="round" stroke-linejoin="round"/>
<path d="M683.086 118.887L687.175 139.922" stroke="#979796" stroke-opacity="0.6" stroke-width="2" stroke-linecap="round" stroke-linejoin="round"/>
<path d="M659.522 72.532C665.101 71.4476 670.882 72.6237 675.594 75.8018C680.305 78.9798 683.562 83.8993 684.646 89.4781" stroke="#979796" stroke-opacity="0.6" stroke-width="2" stroke-linecap="round" stroke-linejoin="round"/>
<path d="M842.615 425.294L831.039 490.948L765.385 479.372L776.961 413.718C782.75 380.891 807.528 368.336 818.471 370.266C829.413 372.195 848.403 392.468 842.615 425.294Z" stroke="#979796" stroke-opacity="0.6" stroke-width="2" stroke-linecap="round" stroke-linejoin="round"/>
<path d="M765.385 479.372L745.112 498.362L843.593 515.727L831.039 490.948L765.385 479.372Z" stroke="#979796" stroke-opacity="0.6" stroke-width="2" stroke-linecap="round" stroke-linejoin="round"/>
<path d="M804.965 446.862C814.03 448.461 822.674 442.408 824.272 433.343C825.871 424.278 819.818 415.634 810.753 414.035C801.688 412.437 793.044 418.49 791.445 427.555C789.847 436.619 795.9 445.264 804.965 446.862Z" stroke="#979796" stroke-opacity="0.6" stroke-width="2" stroke-linecap="round" stroke-linejoin="round"/>
<path d="M794.353 507.045L789.529 534.4" stroke="#979796" stroke-opacity="0.6" stroke-width="2" stroke-linecap="round" stroke-linejoin="round"/>
<path d="M816.237 510.904L813.343 527.317" stroke="#979796" stroke-opacity="0.6" stroke-width="2" stroke-linecap="round" stroke-linejoin="round"/>
<path d="M772.468 503.186L769.574 519.599" stroke="#979796" stroke-opacity="0.6" stroke-width="2" stroke-linecap="round" stroke-linejoin="round"/>
<path d="M426.981 578.51C439.72 578.51 450.047 564.74 450.047 547.755C450.047 530.769 439.72 517 426.981 517C414.242 517 403.915 530.769 403.915 547.755C403.915 564.74 414.242 578.51 426.981 578.51Z" stroke="#979796" stroke-opacity="0.6" stroke-width="2" stroke-linecap="round" stroke-linejoin="round"/>
<path d="M426.981 528.533C432.44 528.533 438.514 536.76 438.514 547.755" stroke="#979796" stroke-opacity="0.6" stroke-width="2" stroke-linecap="round" stroke-linejoin="round"/>
<path d="M445.703 528.533C447.943 526.848 450.529 525.681 453.275 525.116C456.02 524.551 458.857 524.602 461.58 525.265C473.575 528.572 479.918 544.718 475.689 561.402C471.46 578.087 458.274 588.889 446.203 585.622C442.2 584.437 438.717 581.93 436.323 578.51" stroke="#979796" stroke-opacity="0.6" stroke-width="2" stroke-linecap="round" stroke-linejoin="round"/>
<path d="M426.981 578.51V632.331" stroke="#979796" stroke-opacity="0.6" stroke-width="2" stroke-linecap="round" stroke-linejoin="round"/>
<path d="M446.203 586.198L426.981 632.331" stroke="#979796" stroke-opacity="0.6" stroke-width="2" stroke-linecap="round" stroke-linejoin="round"/>
<path d="M408.259 528.533C406.019 526.848 403.433 525.681 400.687 525.116C397.942 524.551 395.105 524.602 392.382 525.265C380.426 528.533 374.083 544.718 378.311 561.402C382.54 578.087 395.688 588.889 407.759 585.622C411.762 584.437 415.245 581.93 417.639 578.51" stroke="#979796" stroke-opacity="0.6" stroke-width="2" stroke-linecap="round" stroke-linejoin="round"/>
<path d="M407.759 586.198L426.981 632.331" stroke="#979796" stroke-opacity="0.6" stroke-width="2" stroke-linecap="round" stroke-linejoin="round"/>
<g clip-path="url(#clip0_44_2398)" filter="url(#filter0_d_44_2398)">
<path d="M466.339 303.623C468.731 303.201 470.335 300.911 469.913 298.518C469.491 296.125 467.201 294.522 464.808 294.944C462.415 295.366 460.812 297.656 461.234 300.049C461.656 302.442 463.946 304.045 466.339 303.623ZM465.317 297.829C466.119 297.688 466.886 298.226 467.028 299.027C467.169 299.829 466.632 300.596 465.83 300.738C465.028 300.879 464.261 300.342 464.119 299.54C463.978 298.738 464.515 297.971 465.317 297.829ZM480.823 301.069C483.215 300.647 484.819 298.357 484.397 295.964C483.975 293.572 481.685 291.968 479.292 292.39C476.899 292.812 475.296 295.102 475.718 297.495C476.14 299.888 478.43 301.491 480.823 301.069ZM479.801 295.275C480.603 295.134 481.37 295.672 481.512 296.473C481.653 297.275 481.116 298.043 480.314 298.184C479.512 298.325 478.745 297.788 478.603 296.986C478.462 296.184 478.999 295.417 479.801 295.275ZM452.734 353.511C453.531 353.37 454.064 352.61 453.924 351.813C453.783 351.016 453.022 350.483 452.225 350.623C451.428 350.764 450.896 351.525 451.036 352.322C451.177 353.119 451.937 353.652 452.734 353.511ZM450.576 355.39C450.435 354.593 449.674 354.06 448.877 354.201C448.08 354.341 447.547 355.102 447.688 355.899C447.828 356.696 448.589 357.229 449.386 357.088C450.183 356.948 450.716 356.187 450.576 355.39Z" fill="#979797" fill-opacity="0.4"/>
<path d="M457.172 356.112C457.969 355.971 458.501 355.211 458.361 354.414C458.22 353.616 457.46 353.084 456.663 353.224C455.865 353.365 455.333 354.125 455.473 354.923C455.614 355.72 456.374 356.252 457.172 356.112Z" fill="#979797" fill-opacity="0.4"/>
<path d="M450.084 362.622C450.485 364.898 452.663 366.423 454.939 366.022C457.215 365.62 458.741 363.442 458.339 361.166C457.938 358.89 455.76 357.365 453.484 357.766C451.208 358.168 449.682 360.346 450.084 362.622ZM455.454 361.675C455.574 362.36 455.116 363.015 454.431 363.136C453.746 363.257 453.09 362.798 452.969 362.113C452.848 361.428 453.308 360.773 453.993 360.652C454.678 360.531 455.333 360.99 455.454 361.675ZM437.33 296.716C438.439 296.019 438.141 294.318 436.858 294.043L432.781 293.167L430.562 289.634C429.866 288.524 428.165 288.823 427.89 290.106L427.013 294.183L423.481 296.401C422.371 297.098 422.67 298.799 423.952 299.074L428.03 299.951L430.248 303.483C430.945 304.593 432.646 304.295 432.921 303.012L433.798 298.934L437.33 296.716ZM430.814 298.873C429.749 297.178 430.036 297.385 428.091 296.967C429.77 295.912 429.576 296.204 429.997 294.244C431.063 295.941 430.779 295.733 432.72 296.15C431.041 297.205 431.235 296.913 430.814 298.873ZM519.036 307.227L514.959 306.351L512.741 302.819C512.044 301.709 510.343 302.008 510.068 303.29L509.191 307.368L505.659 309.586C504.549 310.283 504.848 311.984 506.131 312.259L510.208 313.135L512.426 316.667C513.123 317.777 514.824 317.479 515.099 316.196L515.976 312.119L519.508 309.9C520.618 309.203 520.319 307.503 519.036 307.227ZM512.992 312.058C511.927 310.363 512.213 310.57 510.269 310.152C511.948 309.097 511.754 309.389 512.175 307.429C513.243 309.129 512.962 308.919 514.898 309.335C513.219 310.39 513.413 310.098 512.992 312.058Z" fill="#979797" fill-opacity="0.4"/>
<path d="M512.139 335.117C511.159 330.09 509.723 326.705 507.7 323.507C507.268 322.823 506.363 322.619 505.679 323.052C504.995 323.484 504.792 324.389 505.224 325.073C505.602 325.67 505.947 326.258 506.265 326.848C501.969 331.065 494.057 337.346 488.316 336.333C485.256 335.791 484.03 334.22 483.939 334.098C483.054 332.798 483.23 330.902 484.367 329.482C486.339 327.022 490.453 327.472 496.201 324.715C496.462 324.59 496.683 324.39 496.832 324.134C497.142 323.602 497.026 322.945 496.889 322.76C496.518 321.989 495.31 320.448 493.945 319.404C495.162 318.063 496.168 316.69 496.899 315.523C501.626 319.174 501.166 320.405 502.67 320.139C503.772 319.945 504.272 318.607 503.523 317.74C501.713 315.641 500.116 314.288 498.346 312.94C502.935 303.605 501.967 292.438 495.77 284.048C499.727 281.778 501.919 277.231 501.097 272.566C500.04 266.573 494.328 262.553 488.363 263.605C483.419 264.477 479.817 268.497 479.346 273.34C472.157 271.729 464.575 273.048 458.351 276.992C455.531 271.198 448.435 269.204 442.978 272.234C442.27 272.626 442.015 273.518 442.408 274.225C442.8 274.933 443.692 275.188 444.4 274.795C448.597 272.466 454.038 274.179 455.919 278.721C452.223 281.661 449.327 285.497 447.505 289.835C442.139 289.313 438.951 283.846 440.704 279.519C441.007 278.77 440.646 277.915 439.896 277.612C439.146 277.308 438.292 277.67 437.988 278.42C435.601 284.314 439.567 291.53 446.495 292.66C443.462 302.815 446.511 313.633 453.908 320.75C448.977 328.708 447.101 337.551 448.496 346.352C444.635 347.835 442.077 352.335 442.856 356.75L444.452 365.802C445.12 369.593 448.748 372.133 452.538 371.465C454.595 371.102 468.37 368.673 470.147 368.36C470.944 368.219 471.476 367.46 471.335 366.663C471.195 365.866 470.435 365.334 469.638 365.474L464.141 366.444C464.747 365.176 464.981 363.715 464.718 362.229L463.122 353.176C462.252 348.243 457.431 344.63 452.804 345.446L451.36 345.701C451.058 343.73 450.928 341.699 450.992 339.642C455.121 341.441 459.058 342.628 462.552 343.128C463.254 343.97 464.042 344.803 464.903 345.609C470.047 350.42 480.789 353.793 481.996 354.162C482.439 354.297 482.927 354.216 483.305 353.931C483.7 353.634 493.015 346.574 496.319 340.069C496.833 339.057 497.273 338.037 497.642 337.027C500.827 335.362 504.213 332.85 507.572 329.658C508.29 331.491 508.833 333.528 509.228 335.497L507.845 335.741C503.218 336.557 499.923 341.6 500.793 346.534L502.389 355.587C502.651 357.073 503.37 358.366 504.374 359.35L476.384 364.285C475.587 364.426 475.055 365.185 475.195 365.982C475.336 366.779 476.096 367.311 476.892 367.171C478.767 366.84 515.118 360.43 516.993 360.1C520.784 359.431 523.324 355.804 522.655 352.013L521.059 342.961C520.277 338.523 516.298 335.156 512.139 335.117ZM453.313 348.331C456.348 347.796 459.648 350.348 460.237 353.685L461.833 362.738C462.221 364.937 460.747 367.042 458.548 367.43C456.621 367.77 454.011 368.23 452.03 368.579C449.83 368.967 447.726 367.493 447.338 365.294L445.742 356.241C445.157 352.928 447.359 349.381 450.419 348.842C454.477 348.126 451.113 348.719 453.313 348.331ZM488.872 266.491C493.246 265.719 497.435 268.673 498.211 273.075C498.846 276.673 497.045 280.17 493.868 281.741C490.694 278.288 486.684 275.667 482.229 274.151C482.356 270.369 485.073 267.16 488.872 266.491ZM448.646 304.952C446.251 291.372 455.351 278.375 468.932 275.981C482.512 273.586 495.509 282.687 497.903 296.267C499.279 304.07 496.808 311.874 491.8 317.408C494.533 303.236 472.972 298.219 463.2 309.154C459.767 312.996 458.726 318.051 461.594 322.72C454.983 319.225 450.044 312.884 448.646 304.952ZM474.112 313.796L475.523 321.796C472.014 319.831 467.942 319.587 464.307 321.521C461.337 317.059 463.307 312.334 467.387 309.308C467.484 312.392 470.869 313.923 474.112 313.796ZM470.328 309.342C470.147 308.314 471.805 306.836 474.295 306.397C476.785 305.958 478.848 306.78 479.03 307.808C479.211 308.836 477.555 310.313 475.068 310.753C475.066 310.753 475.065 310.753 475.063 310.753C475.061 310.754 475.06 310.754 475.058 310.754C472.57 311.192 470.509 310.37 470.328 309.342ZM476.998 313.288C480.155 312.276 482.729 309.648 481.782 306.769C485.604 307.906 488.462 310.486 489.054 313.842C489.211 314.732 489.121 316.022 488.84 317.262C484.802 316.624 480.995 318.134 478.389 321.181L476.998 313.288ZM451.24 336.546C451.956 330.916 454.033 326.211 456.159 322.688C457.413 323.659 458.744 324.522 460.14 325.266C459.356 326.459 458.798 327.81 458.486 329.308C458.296 330.148 458.89 330.994 459.772 331.081C466.235 331.771 469.997 329.876 472.725 331.535C474.28 332.48 475.093 334.201 474.707 335.726C474.663 335.871 474.048 337.768 471.358 339.323C466.28 342.257 456.634 339.003 451.24 336.546ZM482.137 351.135C477.843 349.755 470.483 346.815 466.905 343.468C466.656 343.236 466.89 343.548 469.123 343.154C470.522 342.908 471.759 342.476 472.824 341.86C476.623 339.664 477.458 336.793 477.54 336.473C478.256 333.705 476.902 330.645 474.248 329.031C470.735 326.897 467.116 328.486 461.846 328.289C463.099 325.214 466.186 323.186 469.402 323.123C472.167 323.069 474.977 324.523 476.533 326.217C477.277 327.033 478.61 326.767 478.99 325.738C481.366 319.561 489.154 318.147 493.301 322.785C488.479 324.698 484.621 324.481 482.081 327.65C480.138 330.074 479.913 333.413 481.532 335.768C481.719 336.041 483.485 338.454 487.806 339.218C489.779 339.567 491.806 339.273 493.742 338.671C491.563 342.987 485.884 348.212 482.137 351.135ZM519.77 352.522C520.158 354.721 518.684 356.826 516.485 357.214C514.501 357.564 511.914 358.02 509.967 358.363C507.767 358.751 505.663 357.277 505.275 355.078L503.679 346.025C503.09 342.688 505.318 339.161 508.353 338.626C511.132 338.136 505.858 339.066 511.25 338.115C514.285 337.58 517.585 340.132 518.174 343.469L519.77 352.522Z" fill="#979797" fill-opacity="0.4"/>
<path d="M510.671 343.295C511.468 343.155 512.001 342.394 511.86 341.597C511.72 340.8 510.959 340.267 510.162 340.408C509.365 340.548 508.832 341.309 508.973 342.106C509.113 342.903 509.874 343.436 510.671 343.295Z" fill="#979797" fill-opacity="0.4"/>
<path d="M507.323 346.872C508.12 346.732 508.653 345.971 508.512 345.174C508.372 344.377 507.611 343.844 506.814 343.985C506.017 344.125 505.484 344.886 505.625 345.683C505.765 346.48 506.526 347.013 507.323 346.872Z" fill="#979797" fill-opacity="0.4"/>
<path d="M515.108 345.896C515.906 345.755 516.438 344.995 516.297 344.198C516.157 343.4 515.396 342.868 514.599 343.009C513.802 343.149 513.269 343.91 513.41 344.707C513.551 345.504 514.311 346.037 515.108 345.896Z" fill="#979797" fill-opacity="0.4"/>
<path d="M511.42 347.551C509.144 347.952 507.619 350.13 508.021 352.406C508.422 354.682 510.6 356.207 512.876 355.806C515.152 355.405 516.677 353.226 516.276 350.95C515.875 348.674 513.696 347.149 511.42 347.551ZM512.367 352.92C511.682 353.041 511.027 352.582 510.906 351.897C510.785 351.212 511.244 350.557 511.929 350.436C512.614 350.315 513.27 350.774 513.39 351.459C513.511 352.144 513.052 352.8 512.367 352.92Z" fill="#979797" fill-opacity="0.4"/>
</g>
<path d="M142.675 407H66.5783C54.129 407 44 396.823 44 384.314C44 371.804 54.129 361.627 66.5783 361.627C69.5452 361.627 72.4142 362.193 75.1248 363.31C79.8873 351.11 91.6442 343 104.772 343C122.332 343 136.619 357.355 136.619 375C136.619 375.83 136.587 376.666 136.522 377.501C138.452 376.648 140.544 376.204 142.676 376.204C151.126 376.204 158 383.112 158 391.602C158 400.093 151.125 407 142.675 407ZM66.5783 363.968C55.4132 363.968 46.3297 373.095 46.3297 384.314C46.3297 395.532 55.4132 404.66 66.5783 404.66H142.675C149.84 404.66 155.67 398.802 155.67 391.602C155.67 384.403 149.84 378.545 142.675 378.545C140.213 378.545 137.815 379.243 135.739 380.563C135.354 380.808 134.862 380.805 134.48 380.555C134.098 380.305 133.897 379.855 133.964 379.402C134.18 377.942 134.289 376.461 134.289 374.999C134.289 358.646 121.048 345.34 104.772 345.34C92.2127 345.34 81.0074 353.349 76.8879 365.269C76.7789 365.583 76.5425 365.836 76.2367 365.964C75.9309 366.092 75.585 366.084 75.2862 365.94C72.5534 364.632 69.6238 363.968 66.5783 363.968Z" fill="#969695" fill-opacity="0.4"/>
<path d="M676.407 670.561L674.099 670.968L674.573 673.658L676.881 673.251L676.407 670.561Z" fill="#979797" fill-opacity="0.4"/>
<path d="M683.91 667.964C682.379 665.402 679.801 663.587 676.699 663.046C672.281 662.275 667.988 664.291 665.76 668.182L657.114 683.278L639.925 713.291L634.769 722.372L631.028 728.961L633.479 728.529C642.236 726.985 650.363 723.484 657.341 718.393L668.504 716.425C668.505 716.425 668.505 716.425 668.506 716.425C668.678 716.395 668.849 716.362 669.019 716.328L670.177 722.891L677.674 721.568L677.268 719.261L672.078 720.176L671.299 715.762C676.507 714.203 681.011 710.963 684.177 706.442C687.897 701.13 689.325 694.687 688.199 688.3L686.166 676.768L692.769 671.207L683.91 667.964ZM656.389 716.181C654.825 717.345 653.201 718.427 651.521 719.419C646.617 722.313 641.243 724.453 635.561 725.724L637.764 721.844L639.265 719.2L639.239 719.204L641.949 714.472L658.441 685.423L658.602 685.395L681.502 681.357L671.375 699.194C667.548 705.935 662.428 711.684 656.389 716.181ZM685.891 688.707C686.909 694.477 685.618 700.298 682.257 705.098C678.897 709.897 673.869 713.1 668.099 714.117C668.099 714.117 668.098 714.117 668.098 714.117L661.17 715.339C666.006 711.129 670.159 706.084 673.413 700.351L684.501 680.822L685.891 688.707L685.891 688.707ZM684.095 678.52L660.118 682.748L667.793 669.347C669.895 665.676 673.564 664.878 676.296 665.355C679.028 665.831 682.209 667.825 682.944 671.991L684.095 678.52ZM685.147 670.913L688.167 672.019L685.708 674.09L685.147 670.913Z" fill="#979797" fill-opacity="0.4"/>
<path d="M305 359L308.09 365.26L315 366.27L310 371.14L311.18 378.02L305 374.77L298.82 378.02L300 371.14L295 366.27L301.91 365.26L305 359Z" stroke="#979796" stroke-opacity="0.6" stroke-width="2" stroke-linecap="round" stroke-linejoin="round"/>
<path d="M91 508L94.09 514.26L101 515.27L96 520.14L97.18 527.02L91 523.77L84.82 527.02L86 520.14L81 515.27L87.91 514.26L91 508Z" stroke="#979796" stroke-opacity="0.6" stroke-width="2" stroke-linecap="round" stroke-linejoin="round"/>
<path d="M363 733L366.09 739.26L373 740.27L368 745.14L369.18 752.02L363 748.77L356.82 752.02L358 745.14L353 740.27L359.91 739.26L363 733Z" stroke="#979796" stroke-opacity="0.6" stroke-width="2" stroke-linecap="round" stroke-linejoin="round"/>
<path d="M630 466L633.09 472.26L640 473.27L635 478.14L636.18 485.02L630 481.77L623.82 485.02L625 478.14L620 473.27L626.91 472.26L630 466Z" stroke="#979796" stroke-opacity="0.6" stroke-width="2" stroke-linecap="round" stroke-linejoin="round"/>
<path d="M799 641L802.09 647.26L809 648.27L804 653.14L805.18 660.02L799 656.77L792.82 660.02L794 653.14L789 648.27L795.91 647.26L799 641Z" stroke="#979796" stroke-opacity="0.6" stroke-width="2" stroke-linecap="round" stroke-linejoin="round"/>
<path d="M875 35L878.09 41.26L885 42.27L880 47.14L881.18 54.02L875 50.77L868.82 54.02L870 47.14L865 42.27L871.91 41.26L875 35Z" stroke="#979796" stroke-opacity="0.6" stroke-width="2" stroke-linecap="round" stroke-linejoin="round"/>
<path d="M792 240L795.09 246.26L802 247.27L797 252.14L798.18 259.02L792 255.77L785.82 259.02L787 252.14L782 247.27L788.91 246.26L792 240Z" stroke="#979796" stroke-opacity="0.6" stroke-width="2" stroke-linecap="round" stroke-linejoin="round"/>
<path d="M371 50L374.09 56.26L381 57.27L376 62.14L377.18 69.02L371 65.77L364.82 69.02L366 62.14L361 57.27L367.91 56.26L371 50Z" stroke="#979796" stroke-opacity="0.6" stroke-width="2" stroke-linecap="round" stroke-linejoin="round"/>
<path d="M497 160L500.09 166.26L507 167.27L502 172.14L503.18 179.02L497 175.77L490.82 179.02L492 172.14L487 167.27L493.91 166.26L497 160Z" stroke="#979796" stroke-opacity="0.6" stroke-width="2" stroke-linecap="round" stroke-linejoin="round"/>
<path d="M15 55L18.09 61.26L25 62.27L20 67.14L21.18 74.02L15 70.77L8.82 74.02L10 67.14L5 62.27L11.91 61.26L15 55Z" stroke="#979796" stroke-opacity="0.6" stroke-width="2" stroke-linecap="round" stroke-linejoin="round"/>
<path d="M9 263V250L21 248V261" stroke="#979796" stroke-opacity="0.6" stroke-width="2" stroke-linecap="round" stroke-linejoin="round"/>
<path d="M6 266C7.65685 266 9 264.657 9 263C9 261.343 7.65685 260 6 260C4.34315 260 3 261.343 3 263C3 264.657 4.34315 266 6 266Z" stroke="#979796" stroke-opacity="0.6" stroke-width="2" stroke-linecap="round" stroke-linejoin="round"/>
<path d="M18 264C19.6569 264 21 262.657 21 261C21 259.343 19.6569 258 18 258C16.3431 258 15 259.343 15 261C15 262.657 16.3431 264 18 264Z" stroke="#979796" stroke-opacity="0.6" stroke-width="2" stroke-linecap="round" stroke-linejoin="round"/>
<path d="M70 687V674L82 672V685" stroke="#979796" stroke-opacity="0.6" stroke-width="2" stroke-linecap="round" stroke-linejoin="round"/>
<path d="M67 690C68.6569 690 70 688.657 70 687C70 685.343 68.6569 684 67 684C65.3431 684 64 685.343 64 687C64 688.657 65.3431 690 67 690Z" stroke="#979796" stroke-opacity="0.6" stroke-width="2" stroke-linecap="round" stroke-linejoin="round"/>
<path d="M79 688C80.6569 688 82 686.657 82 685C82 683.343 80.6569 682 79 682C77.3431 682 76 683.343 76 685C76 686.657 77.3431 688 79 688Z" stroke="#979796" stroke-opacity="0.6" stroke-width="2" stroke-linecap="round" stroke-linejoin="round"/>
<path d="M518 687V674L530 672V685" stroke="#979796" stroke-opacity="0.6" stroke-width="2" stroke-linecap="round" stroke-linejoin="round"/>
<path d="M515 690C516.657 690 518 688.657 518 687C518 685.343 516.657 684 515 684C513.343 684 512 685.343 512 687C512 688.657 513.343 690 515 690Z" stroke="#979796" stroke-opacity="0.6" stroke-width="2" stroke-linecap="round" stroke-linejoin="round"/>
<path d="M527 688C528.657 688 530 686.657 530 685C530 683.343 528.657 682 527 682C525.343 682 524 683.343 524 685C524 686.657 525.343 688 527 688Z" stroke="#979796" stroke-opacity="0.6" stroke-width="2" stroke-linecap="round" stroke-linejoin="round"/>
<path d="M861 318V305L873 303V316" stroke="#979796" stroke-opacity="0.6" stroke-width="2" stroke-linecap="round" stroke-linejoin="round"/>
<path d="M858 321C859.657 321 861 319.657 861 318C861 316.343 859.657 315 858 315C856.343 315 855 316.343 855 318C855 319.657 856.343 321 858 321Z" stroke="#979796" stroke-opacity="0.6" stroke-width="2" stroke-linecap="round" stroke-linejoin="round"/>
<path d="M870 319C871.657 319 873 317.657 873 316C873 314.343 871.657 313 870 313C868.343 313 867 314.343 867 316C867 317.657 868.343 319 870 319Z" stroke="#979796" stroke-opacity="0.6" stroke-width="2" stroke-linecap="round" stroke-linejoin="round"/>
<path d="M530 31V18L542 16V29" stroke="#979796" stroke-opacity="0.6" stroke-width="2" stroke-linecap="round" stroke-linejoin="round"/>
<path d="M527 34C528.657 34 530 32.6569 530 31C530 29.3431 528.657 28 527 28C525.343 28 524 29.3431 524 31C524 32.6569 525.343 34 527 34Z" stroke="#979796" stroke-opacity="0.6" stroke-width="2" stroke-linecap="round" stroke-linejoin="round"/>
<path d="M539 32C540.657 32 542 30.6569 542 29C542 27.3431 540.657 26 539 26C537.343 26 536 27.3431 536 29C536 30.6569 537.343 32 539 32Z" stroke="#979796" stroke-opacity="0.6" stroke-width="2" stroke-linecap="round" stroke-linejoin="round"/>
<defs>
<filter id="filter0_d_44_2398" x="412" y="255" width="123.846" height="123.845" filterUnits="userSpaceOnUse" color-interpolation-filters="sRGB">
<feFlood flood-opacity="0" result="BackgroundImageFix"/>
<feColorMatrix in="SourceAlpha" type="matrix" values="0 0 0 0 0 0 0 0 0 0 0 0 0 0 0 0 0 0 127 0" result="hardAlpha"/>
<feOffset/>
<feGaussianBlur stdDeviation="2"/>
<feComposite in2="hardAlpha" operator="out"/>
<feColorMatrix type="matrix" values="0 0 0 0 0 0 0 0 0 0 0 0 0 0 0 0 0 0 0.25 0"/>
<feBlend mode="normal" in2="BackgroundImageFix" result="effect1_dropShadow_44_2398"/>
<feBlend mode="normal" in="SourceGraphic" in2="effect1_dropShadow_44_2398" result="shape"/>
</filter>
<clipPath id="clip0_44_2398">
<rect width="100" height="100" fill="white" transform="translate(416 276.365) rotate(-10)"/>
</clipPath>
</defs>
</svg>
