<svg width="184" height="181" viewBox="0 0 184 181" fill="none" xmlns="http://www.w3.org/2000/svg">
<path d="M172.913 78.9006L154.496 95.5925L169.848 115.144L145.996 122.161L151.344 146.44L126.809 142.449L121.091 166.643L100.728 152.367L85.089 171.702L72.9237 150.023L50.4378 160.621L48.887 135.808L24.0248 135.637L33.3934 112.612L11.0887 101.644L29.5059 84.9516L14.1537 65.4003L38.0058 58.3835L32.6569 34.1038L57.1932 38.0939L62.9114 13.9013L83.2741 28.1763L98.9131 8.84164L111.078 30.5216L133.564 19.9231L135.115 44.7365L159.977 44.9061L150.609 67.9317L172.913 78.9006Z" fill="#FF9800"/>
<path d="M138.75 85.0646C142.401 111.045 124.299 135.067 98.3189 138.718C72.3382 142.369 48.3167 124.268 44.6653 98.2873C41.014 72.3067 59.1155 48.2851 85.0962 44.6338C111.077 40.9824 135.098 59.084 138.75 85.0646Z" fill="#F7E967"/>
<path d="M77.9482 85.9342C78.5324 90.0911 75.6361 93.9346 71.4792 94.5188C67.3224 95.1031 63.4796 92.2066 62.8954 88.0498C62.3112 83.8929 65.2067 80.0495 69.3636 79.4653C73.5205 78.8811 77.364 81.7774 77.9482 85.9342Z" fill="black"/>
<path d="M69.9875 83.905C70.113 84.7974 69.491 85.6238 68.5986 85.7492C67.7053 85.8747 66.8797 85.2518 66.7542 84.3594C66.6287 83.4662 67.2508 82.6406 68.144 82.5151C69.0364 82.3897 69.862 83.0118 69.9875 83.905Z" fill="white"/>
<path d="M118.405 80.2484C118.989 84.4053 116.093 88.2488 111.936 88.833C107.779 89.4173 103.935 86.5209 103.351 82.3641C102.767 78.2072 105.663 74.3637 109.82 73.7795C113.977 73.1953 117.821 76.0916 118.405 80.2484Z" fill="black"/>
<path d="M110.444 78.2192C110.57 79.1116 109.947 79.9381 109.054 80.0635C108.161 80.189 107.335 79.5661 107.21 78.6737C107.084 77.7805 107.707 76.9549 108.6 76.8294C109.492 76.704 110.319 77.326 110.444 78.2192Z" fill="white"/>
<path d="M108.712 103.649C109.878 111.947 104.097 119.619 95.7985 120.785C87.5007 121.951 79.8283 116.17 78.6621 107.872L108.712 103.649Z" fill="black"/>
<path d="M101.016 104.73C100.464 107.974 97.8745 110.64 94.4406 111.123C91.006 111.606 87.7822 109.756 86.3576 106.791L101.016 104.73Z" fill="white"/>
<path d="M72.7376 62.841C73.1027 65.4391 71.2927 67.8411 68.6946 68.2062C66.0972 68.5713 63.6944 66.7614 63.3293 64.1632C62.9641 61.5651 64.775 59.163 67.3723 58.798C69.9705 58.4328 72.3724 60.2428 72.7376 62.841Z" fill="white"/>
<path d="M80.3608 54.574C80.5547 55.9538 79.5935 57.2303 78.2129 57.4243C76.8324 57.6183 75.5566 56.6562 75.3626 55.2764C75.1686 53.8959 76.1299 52.6202 77.5105 52.4262C78.8911 52.2321 80.1668 53.1934 80.3608 54.574Z" fill="white"/>
</svg>
