<svg viewBox="0 0 50 50" fill="none" xmlns="http://www.w3.org/2000/svg">
<g clip-path="url(#clip0_24_78)">
<path d="M34.375 0H15.625C11.481 0 7.50671 1.6462 4.57646 4.57646C1.6462 7.50671 0 11.481 0 15.625L0 34.375C0 38.519 1.6462 42.4933 4.57646 45.4235C7.50671 48.3538 11.481 50 15.625 50H34.375C38.519 50 42.4933 48.3538 45.4235 45.4235C48.3538 42.4933 50 38.519 50 34.375V15.625C50 11.481 48.3538 7.50671 45.4235 4.57646C42.4933 1.6462 38.519 0 34.375 0ZM45.3125 34.375C45.3125 40.4062 40.4062 45.3125 34.375 45.3125H15.625C9.59375 45.3125 4.6875 40.4062 4.6875 34.375V15.625C4.6875 9.59375 9.59375 4.6875 15.625 4.6875H34.375C40.4062 4.6875 45.3125 9.59375 45.3125 15.625V34.375Z" fill="#36AA00"/>
<path d="M25 12.5C21.6848 12.5 18.5054 13.817 16.1612 16.1612C13.817 18.5054 12.5 21.6848 12.5 25C12.5 28.3152 13.817 31.4946 16.1612 33.8388C18.5054 36.183 21.6848 37.5 25 37.5C28.3152 37.5 31.4946 36.183 33.8388 33.8388C36.183 31.4946 37.5 28.3152 37.5 25C37.5 21.6848 36.183 18.5054 33.8388 16.1612C31.4946 13.817 28.3152 12.5 25 12.5ZM25 32.8125C22.9288 32.81 20.9431 31.9861 19.4785 30.5215C18.0139 29.0569 17.19 27.0712 17.1875 25C17.1875 20.6906 20.6938 17.1875 25 17.1875C29.3062 17.1875 32.8125 20.6906 32.8125 25C32.8125 29.3062 29.3062 32.8125 25 32.8125Z" fill="#36AA00"/>
<path d="M38.4375 13.2281C39.3574 13.2281 40.1031 12.4824 40.1031 11.5625C40.1031 10.6426 39.3574 9.89685 38.4375 9.89685C37.5176 9.89685 36.7719 10.6426 36.7719 11.5625C36.7719 12.4824 37.5176 13.2281 38.4375 13.2281Z" fill="#36AA00"/>
</g>
<defs>
<clipPath id="clip0_24_78">
<rect width="50" height="50" fill="white"/>
</clipPath>
</defs>
</svg>