<svg width="44" height="32" viewBox="0 0 44 32" fill="none" xmlns="http://www.w3.org/2000/svg">
<path d="M22 1.5L22 0L22.0001 1.5H22.0005L22.0022 1.5L22.0093 1.5L22.0381 1.50003L22.1523 1.50021C22.2528 1.50042 22.4011 1.50084 22.5914 1.50168C22.9719 1.50337 23.52 1.50675 24.1886 1.51351C25.5266 1.52703 27.3446 1.55407 29.2679 1.60808C31.1936 1.66215 33.2133 1.74295 34.9582 1.8632C36.7203 1.98466 38.0855 2.1397 38.8051 2.31679C39.4749 2.51805 40.0885 2.89809 40.5829 3.42558C41.0741 3.94969 41.4301 4.60089 41.6112 5.31766C42.2243 8.85325 42.5219 12.4399 42.5001 16.0323L42.5001 16.0466C42.5123 19.585 42.2148 23.1171 41.6112 26.5996C41.43 27.3164 41.0741 27.9675 40.5829 28.4916C40.0846 29.0233 39.4651 29.4052 38.7892 29.6052C38.0861 29.7977 36.7246 29.9685 34.9484 30.1026C33.2063 30.2341 31.1886 30.3225 29.2639 30.3817C27.3417 30.4408 25.5246 30.4704 24.1872 30.4852C23.5188 30.4926 22.971 30.4963 22.5907 30.4982C22.4006 30.4991 22.2524 30.4995 22.152 30.4998L22.038 30.5L22.0092 30.5L22.0021 30.5H22.0005H22H21.9996H21.9979L21.9909 30.5L21.9621 30.5L21.8481 30.4998C21.7477 30.4995 21.5995 30.4991 21.4094 30.4982C21.0291 30.4963 20.4813 30.4926 19.8129 30.4852C18.4755 30.4704 16.6584 30.4408 14.7362 30.3817C12.8114 30.3225 10.7938 30.2341 9.0517 30.1026C7.27003 29.9681 5.90558 29.7966 5.20443 29.6034C4.53993 29.4144 3.92792 29.05 3.42963 28.5397C2.94515 28.0434 2.58442 27.4255 2.38462 26.7404C1.77441 23.2128 1.47827 19.6345 1.50002 16.0505L1.50003 16.0342C1.48301 12.4689 1.78056 8.90946 2.3889 5.40043C2.57005 4.68366 2.92595 4.03248 3.41717 3.50837C3.9155 2.97669 4.53495 2.59483 5.21092 2.39482C5.91398 2.20232 7.27552 2.0315 9.0517 1.89743C10.7938 1.76592 12.8114 1.6775 14.7362 1.61831C16.6584 1.55919 18.4755 1.52959 19.8129 1.51479C20.4813 1.50739 21.0291 1.50369 21.4094 1.50184C21.5995 1.50092 21.7477 1.50046 21.8481 1.50023L21.9621 1.50003L21.9909 1.5L21.9979 1.5L21.9996 1.5H22Z" stroke="#F9F7F7" stroke-width="3" stroke-linecap="round" stroke-linejoin="round"/>
<path d="M17.5 18.6018C17.5 20.1356 19.1554 21.0986 20.4887 20.3403L25.943 17.2385C27.2914 16.4717 27.2914 14.5283 25.943 13.7615L20.4887 10.6596C19.1554 9.90141 17.5 10.8644 17.5 12.3982V18.6018Z" stroke="#F9F7F7" stroke-width="3" stroke-linecap="round" stroke-linejoin="round"/>
</svg>
