<svg viewBox="0 0 66 48" fill="none" xmlns="http://www.w3.org/2000/svg">
<path d="M33.0001 45.8334C33 45.8334 33 45.8334 33 47.3334C33 45.8334 33 45.8334 32.9999 45.8334H32.9993H32.9967L32.9862 45.8334L32.9439 45.8333L32.7768 45.833C32.6298 45.8327 32.4131 45.832 32.1352 45.8307C31.5794 45.828 30.7791 45.8226 29.8028 45.8118C27.8495 45.7901 25.1948 45.7469 22.3857 45.6605C19.5741 45.574 16.6203 45.4447 14.0652 45.2518C11.4701 45.0559 9.4158 44.8026 8.32076 44.5003C7.23363 44.1916 6.23595 43.5967 5.42619 42.7673C4.63066 41.9525 4.04327 40.9384 3.72316 39.8176C2.82197 34.621 2.38458 29.3494 2.41662 24.0695L2.41663 24.0532C2.39157 18.8048 2.83033 13.5651 3.72735 8.39976C4.01757 7.23311 4.59518 6.16984 5.39834 5.31292C6.20892 4.44808 7.22003 3.82426 8.32748 3.49791C9.4242 3.1964 11.4754 2.94371 14.0652 2.74822C16.6203 2.55534 19.5741 2.42601 22.3857 2.33954C25.1948 2.25315 27.8495 2.20992 29.8028 2.18829C30.7791 2.17748 31.5794 2.17208 32.1352 2.16938C32.4131 2.16803 32.6298 2.16736 32.7768 2.16702L32.9439 2.16673L32.9862 2.16669L32.9967 2.16669L32.9993 2.16669L32.9999 2.16669C33 2.16669 33 2.16669 33 0.666687C33 2.16669 33 2.16669 33.0001 2.16669L33.0007 2.16669L33.0033 2.16669L33.0138 2.16669L33.0562 2.16672L33.2234 2.16699C33.3705 2.1673 33.5874 2.16792 33.8654 2.16915C34.4214 2.17161 35.222 2.17655 36.1986 2.18642C38.1524 2.20617 40.8081 2.24566 43.6183 2.32457C46.4308 2.40354 49.3867 2.5217 51.9445 2.69799C54.5211 2.87557 56.5759 3.10542 57.6885 3.38192C58.7897 3.70956 59.795 4.33152 60.6016 5.19218C61.4048 6.0491 61.9824 7.11239 62.2726 8.27905C63.1766 13.4835 63.6154 18.7632 63.5833 24.0513L63.5833 24.0656C63.6014 29.2744 63.1627 34.474 62.2726 39.6003C61.9824 40.7669 61.4048 41.8302 60.6016 42.6871C59.7911 43.5519 58.78 44.1758 57.6726 44.5021C56.5759 44.8036 54.5246 45.0563 51.9347 45.2518C49.3797 45.4447 46.4259 45.574 43.6143 45.6605C40.8052 45.7469 38.1504 45.7901 36.1972 45.8118C35.2209 45.8226 34.4205 45.828 33.8647 45.8307C33.5868 45.832 33.3701 45.8327 33.2231 45.833L33.056 45.8333L33.0137 45.8334L33.0032 45.8334H33.0007H33.0001Z" stroke="#36AA00" stroke-width="3" stroke-linecap="round" stroke-linejoin="round"/>
<path d="M39.4098 23.7055L28.6847 29.8048C28.3513 29.9943 27.9375 29.7536 27.9375 29.3702V17.1715C27.9375 16.7881 28.3514 16.5473 28.6847 16.7369L39.4098 22.8362C39.7469 23.0279 39.7469 23.5138 39.4098 23.7055Z" stroke="#36AA00" stroke-width="3" stroke-linecap="round" stroke-linejoin="round"/>
</svg>